<?xml version="1.0" encoding="utf-8"?>
<!-- Generator: Adobe Illustrator 17.0.0, SVG Export Plug-In . SVG Version: 6.00 Build 0)  -->
<!DOCTYPE svg PUBLIC "-//W3C//DTD SVG 1.1//EN" "http://www.w3.org/Graphics/SVG/1.1/DTD/svg11.dtd">
<svg version="1.1" id="Layer_2" xmlns="http://www.w3.org/2000/svg" xmlns:xlink="http://www.w3.org/1999/xlink" x="0px" y="0px"
	 width="1452px" height="471px" viewBox="0 0 1452 471" enable-background="new 0 0 1452 471" xml:space="preserve">
<path fill="#FFFFFF" d="M391,410C117,522,0,305.62,0,305.62V471h1452V224C1167,0,665,298,391,410z M590.5,428.69
	c-12.72,0-23.04-10.67-23.04-23.81c0-13.15,10.32-23.81,23.04-23.81s23.04,10.66,23.04,23.81
	C613.54,418.02,603.22,428.69,590.5,428.69z M689.38,417.38c-20.23,0-36.63-16.95-36.63-37.85c0-20.9,16.4-37.84,36.63-37.84
	c20.22,0,36.62,16.94,36.62,37.84C726,400.43,709.6,417.38,689.38,417.38z M828.98,396.69c-33.13,0-60-27.76-60-62s26.87-62,60-62
	c33.14,0,60,27.76,60,62S862.12,396.69,828.98,396.69z M1046.98,426.69c-61.85,0-112-50.14-112-112c0-61.85,50.15-112,112-112
	c61.86,0,112,50.15,112,112C1158.98,376.55,1108.84,426.69,1046.98,426.69z M1252.5,412.62c-20.45,0-37.04-17.14-37.04-38.28
	c0-21.14,16.59-38.27,37.04-38.27s37.04,17.13,37.04,38.27C1289.54,395.48,1272.95,412.62,1252.5,412.62z M1245.6,308.22
	c-38.87,0-70.38-32.58-70.38-72.73c0-40.16,31.51-72.7,70.38-72.7c38.85,0,70.36,32.54,70.36,72.7
	C1315.96,275.64,1284.45,308.22,1245.6,308.22z M1371.5,448.69c-12.72,0-23.04-10.67-23.04-23.81c0-13.15,10.32-23.81,23.04-23.81
	s23.04,10.66,23.04,23.81C1394.54,438.02,1384.22,448.69,1371.5,448.69z M1373.73,353.62c-25,0-45.27-20.95-45.27-46.78
	c0-25.83,20.27-46.77,45.27-46.77c24.99,0,45.26,20.94,45.26,46.77C1418.99,332.67,1398.72,353.62,1373.73,353.62z"/>
<g>
	<path fill="#FFFFFF" d="M819.551,299.304l48.79,33.432c0,0,2.571,1.525-0.297,5.711c-2.868,4.186-14.268,20.822-14.268,20.822
		s-0.99,1.215-5.383-1.323s-43.386-23.42-43.386-23.42s0.499,4.206-3.677,5.367l37.448,25.66c0,0,2.055,1.763,0.509,4.134
		c-1.546,2.371-3.584,1.961-15.46-6.177c-11.876-8.138-32.098-21.994-32.098-21.994s-4.887-3.94,6.798-7.053l15.471-38.411
		l-9.041-6.195c0,0-3.147-5.389,3.413-5.784l13,8.908C821.37,292.979,822.908,294.979,819.551,299.304z"/>
	
		<ellipse transform="matrix(-0.8249 -0.5652 0.5652 -0.8249 1247.406 1084.4325)" fill="#FFFFFF" cx="791.649" cy="349.031" rx="6.064" ry="6.245"/>
	
		<ellipse transform="matrix(-0.8249 -0.5652 0.5652 -0.8249 1300.3981 1150.9623)" fill="#FFFFFF" cx="828.448" cy="374.089" rx="6.485" ry="6.636"/>
</g>
<g>
	<path fill="#FFFFFF" d="M993.095,274.876l117.406-21.628c0,0,5.85-1.478,7.706,8.594c1.856,10.073,9.23,50.106,9.23,50.106
		s0.313,3.147-9.585,5.771c-9.899,2.625-95.421,28.259-95.421,28.259s6.701,5.308,2.379,12.914l90.115-16.6
		c0,0,5.449-0.403,6.613,5.191s-2.337,7.908-30.916,13.172c-28.579,5.265-77.241,14.229-77.241,14.229s-12.601,1.32-0.314-19.77
		l-32.55-76.987l-21.756,4.008c0,0-12.175-3.232-3.351-13.135l31.283-5.763C986.691,263.238,991.74,263.91,993.095,274.876z"/>
	
		<ellipse transform="matrix(-0.9835 0.1812 -0.1812 -0.9835 2100.8765 579.6155)" fill="#FFFFFF" cx="1023.968" cy="385.752" rx="12.239" ry="12.606"/>
	
		<ellipse transform="matrix(-0.9835 0.1812 -0.1812 -0.9835 2273.0769 530.8105)" fill="#FFFFFF" cx="1112.297" cy="369.214" rx="13.09" ry="13.394"/>
</g>
<g>
	<path fill="#FFFFFF" d="M666.14,376.075l28.162-26.22c0,0,1.334-1.415,3.583,1.001s11.19,12.019,11.19,12.019
		s0.63,0.801-1.605,3.229s-21.037,24.213-21.037,24.213s2.741,0.282,2.884,3.098l21.615-20.125c0,0,1.411-1.054,2.697,0.265
		s0.735,2.554-6.12,8.936c-6.855,6.382-18.527,17.25-18.527,17.25s-3.196,2.542-3.511-5.319l-22.185-15.284l-5.219,4.859
		c0,0-3.869,1.231-3.187-2.989l7.504-6.986C662.383,374.021,663.872,373.329,666.14,376.075z"/>
	
		<ellipse transform="matrix(-0.7319 0.6814 -0.6814 -0.7319 1474.6383 221.517)" fill="#FFFFFF" cx="693.741" cy="400.86" rx="3.945" ry="4.063"/>
	
		<ellipse transform="matrix(-0.7319 0.6814 -0.6814 -0.7319 1497.7606 172.8224)" fill="#FFFFFF" cx="714.881" cy="381.061" rx="4.219" ry="4.317"/>
</g>
<g>
	<path fill="#FFFFFF" d="M1222.553,198.761l72.298,6.891c0,0,3.669,0.109,3.078,6.312c-0.591,6.203-2.941,30.855-2.941,30.855
		s-0.34,1.893-6.569,1.781s-60.537,0.65-60.537,0.65s3.037,4.221-0.758,7.952l55.492,5.289c0,0,3.256,0.671,3.005,4.138
		c-0.25,3.467-2.684,4.238-20.283,2.561c-17.599-1.677-47.564-4.533-47.564-4.533s-7.593-1.326,3.107-11.62l-6.229-50.466
		l-13.397-1.277c0,0-6.586-3.918,0.226-8.244l19.264,1.836C1220.744,190.885,1223.586,192.119,1222.553,198.761z"/>
	
		<ellipse transform="matrix(-0.9955 -0.0949 0.0949 -0.9955 2413.3032 652.2997)" fill="#FFFFFF" cx="1222.159" cy="268.777" rx="7.446" ry="7.669"/>
	
		<ellipse transform="matrix(-0.9955 -0.0949 0.0949 -0.9955 2521.4541 667.4978)" fill="#FFFFFF" cx="1276.596" cy="273.804" rx="7.963" ry="8.148"/>
</g>
<g>
	<path fill="#FFFFFF" d="M1237.977,355.592l37.84,3.607c0,0,1.921,0.057,1.611,3.304c-0.309,3.246-1.539,16.149-1.539,16.149
		s-0.178,0.991-3.438,0.932c-3.26-0.059-31.685,0.34-31.685,0.34s1.59,2.21-0.397,4.162l29.044,2.768c0,0,1.704,0.351,1.573,2.166
		s-1.405,2.218-10.616,1.34c-9.211-0.878-24.895-2.373-24.895-2.373s-3.974-0.694,1.626-6.082l-3.26-26.413l-7.012-0.668
		c0,0-3.447-2.051,0.118-4.315l10.082,0.961C1237.03,351.47,1238.518,352.116,1237.977,355.592z"/>
	
		<ellipse transform="matrix(-0.9955 -0.0949 0.0949 -0.9955 2432.7422 900.1472)" fill="#FFFFFF" cx="1237.771" cy="392.238" rx="3.897" ry="4.014"/>
	
		<ellipse transform="matrix(-0.9955 -0.0949 0.0949 -0.9955 2489.3474 908.1017)" fill="#FFFFFF" cx="1266.263" cy="394.87" rx="4.168" ry="4.265"/>
</g>
<g>
	<path fill="#FFFFFF" d="M1352.939,290.969l41.8-5.93c0,0,2.089-0.437,2.597,3.149c0.509,3.586,2.531,17.839,2.531,17.839
		s0.065,1.116-3.471,1.899c-3.536,0.783-34.128,8.594-34.128,8.594s2.29,1.973,0.652,4.598l32.083-4.552
		c0,0,1.931-0.063,2.261,1.931s-0.941,2.76-11.116,4.204c-10.175,1.444-27.5,3.901-27.5,3.901s-4.472,0.283,0.177-6.99
		l-10.379-27.677l-7.746,1.099c0,0-4.255-1.319-0.993-4.69l11.137-1.58C1350.846,286.763,1352.62,287.074,1352.939,290.969z"/>
	
		<ellipse transform="matrix(-0.9901 0.1405 -0.1405 -0.9901 2757.3943 466.5676)" fill="#FFFFFF" cx="1362.231" cy="330.596" rx="4.328" ry="4.458"/>
	
		<ellipse transform="matrix(-0.9901 0.1405 -0.1405 -0.9901 2819.3452 453.0833)" fill="#FFFFFF" cx="1393.683" cy="326.04" rx="4.629" ry="4.737"/>
</g>
<g>
	<path fill="#FFFFFF" d="M1367.857,412.118l20.831,10.863c0,0,1.087,0.479,0.155,2.266s-4.636,8.89-4.636,8.89
		s-0.333,0.526-2.186-0.266c-1.853-0.792-18.224-7.172-18.224-7.172s0.397,1.635-1.195,2.291l15.989,8.338
		c0,0,0.894,0.597,0.397,1.606s-1.32,0.944-6.391-1.701c-5.071-2.644-13.705-7.147-13.705-7.147s-2.115-1.321,2.345-3.105
		l4.274-15.884l-3.86-2.013c0,0-1.497-1.976,1.071-2.443l5.55,2.894C1368.273,409.538,1368.975,410.253,1367.857,412.118z"/>
	
		<ellipse transform="matrix(-0.8867 -0.4624 0.4624 -0.8867 2364.1658 1445.5256)" fill="#FFFFFF" cx="1359.219" cy="433.056" rx="2.409" ry="2.481"/>
	
		<ellipse transform="matrix(-0.8867 -0.4624 0.4624 -0.8867 2390.0352 1468.1284)" fill="#FFFFFF" cx="1374.923" cy="441.188" rx="2.576" ry="2.636"/>
</g>
<g>
	<path fill="#FFFFFF" d="M582.5,393.481l21.622,2.061c0,0,1.097,0.033,0.921,1.888c-0.177,1.855-0.88,9.228-0.88,9.228
		s-0.102,0.566-1.965,0.533c-1.863-0.034-18.105,0.194-18.105,0.194s0.908,1.263-0.227,2.378l16.596,1.582
		c0,0,0.974,0.201,0.899,1.238s-0.803,1.267-6.066,0.766c-5.263-0.502-14.225-1.356-14.225-1.356s-2.271-0.396,0.929-3.475
		l-1.863-15.093l-4.007-0.382c0,0-1.97-1.172,0.068-2.465l5.761,0.549C581.959,391.126,582.809,391.495,582.5,393.481z"/>
	
		<ellipse transform="matrix(-0.9955 -0.0949 0.0949 -0.9955 1122.8165 882.2289)" fill="#FFFFFF" cx="582.382" cy="414.421" rx="2.227" ry="2.293"/>
	
		<ellipse transform="matrix(-0.9955 -0.0949 0.0949 -0.9955 1155.1614 886.7743)" fill="#FFFFFF" cx="598.663" cy="415.925" rx="2.382" ry="2.437"/>
</g>
</svg>
